# xmcd
#
# Track frame offsets:
#	150
#	18111
#	29844
#	44479
#	56402
#	74818
#	92166
#	109504
#	122368
#	138160
#	152305
#	167112
#	182432
#	201206
#	215627
#	235203
#	248911
#
# Disc length: 3503 seconds
#
# Revision: 1
# Processed by: cddbd v1.5.1PL2 Copyright (c) Steve Scherf et al.
# Submitted via: audiograbber 1.83.01
#
DISCID=e80dad11
DTITLE=Milsap, Ronnie - thmpl32
DYEAR=1900
DGENRE=
TTITLE0=Milsap, Ronnie - Are You Lovin' Me Like I'm Lovin' You
TTITLE1=Milsap, Ronnie - Pure Love
TTITLE2=Milsap, Ronnie - It Was Almost Like A Song
TTITLE3=Milsap, Ronnie - Daydreams About Night Things
TTITLE4=Milsap, Ronnie - I Wouldn't Have Missed It For The World
TTITLE5=Milsap, Ronnie - What A Difference You've Made In My Life
TTITLE6=Milsap, Ronnie - She Keeps The Home Fires Burning
TTITLE7=Milsap, Ronnie - Please Dont Tell Me How The Story Ends
TTITLE8=Milsap, Ronnie - Houston Solution
TTITLE9=Milsap, Ronnie - Don't You Ever Get Tired Of Hurting Me
TTITLE10=Milsap, Ronnie - Woman In Love
TTITLE11=Milsap, Ronnie - No Getting Over Me
TTITLE12=Milsap, Ronnie - Since I Don't Have You
TTITLE13=Milsap, Ronnie - Too Late To Worry Too Blue To Cry
TTITLE14=Milsap, Ronnie - All Is Fair In Love And War
TTITLE15=Milsap, Ronnie - What Goes On When The Sun Goes Down
TTITLE16=Milsap, Ronnie - Turn That Radio On
EXTD=
EXTT0=
EXTT1=
EXTT2=
EXTT3=
EXTT4=
EXTT5=
EXTT6=
EXTT7=
EXTT8=
EXTT9=
EXTT10=
EXTT11=
EXTT12=
EXTT13=
EXTT14=
EXTT15=
EXTT16=
PLAYORDER=
